<?xml version="1.0" encoding="iso-8859-1"?>
<!-- Generator: Adobe Illustrator 19.0.0, SVG Export Plug-In . SVG Version: 6.00 Build 0)  -->
<svg version="1.1" id="Capa_1" xmlns="http://www.w3.org/2000/svg" xmlns:xlink="http://www.w3.org/1999/xlink" x="0px" y="0px"
	 viewBox="0 0 60 60" style="enable-background:new 0 0 60 60;" xml:space="preserve">
<g>
	<g>
		<path d="M59,33h-4V14c0-0.6-0.4-1-1-1H34V5c0-0.6-0.4-1-1-1h-3V2h-2v2H5V2H3v2H1C0.4,4,0,4.4,0,5v52c0,0.6,0.4,1,1,1h32h26
			c0.6,0,1-0.4,1-1V34C60,33.4,59.6,33,59,33z M53,15v2H37v2h16v14H34V15H53z M2,11h26V9H2V6h30v8v20v22h-8v-6h2c0.6,0,1-0.4,1-1v-6
			c0-1.7-1.3-3-3-3H10c-1.7,0-3,1.3-3,3v6c0,0.6,0.4,1,1,1h2v6H2V11z M14,46v-4h2v4h2v-4h2v4h2v-4h2c0.6,0,1,0.4,1,1v5H9v-5
			c0-0.6,0.4-1,1-1h2v4H14z M16,50v6h-4v-6H16z M18,50h4v6h-4V50z M58,56h-6v-5c1.7,0,3-1.3,3-3v-8c0-1.7-1.3-3-3-3h-2
			c-1.7,0-3,1.3-3,3v8c0,1.7,1.3,3,3,3v5h-8v-5c1.7,0,3-1.3,3-3v-8c0-1.7-1.3-3-3-3h-2c-1.7,0-3,1.3-3,3v8c0,1.7,1.3,3,3,3v5h-6V35
			h20h4V56z M50,49c-0.6,0-1-0.4-1-1v-8c0-0.6,0.4-1,1-1h2c0.6,0,1,0.4,1,1v8c0,0.6-0.4,1-1,1H50z M40,49c-0.6,0-1-0.4-1-1v-8
			c0-0.6,0.4-1,1-1h2c0.6,0,1,0.4,1,1v8c0,0.6-0.4,1-1,1H40z"/>
		<path d="M5,20h5c0.6,0,1-0.4,1-1v-5c0-0.6-0.4-1-1-1H5c-0.6,0-1,0.4-1,1v5C4,19.6,4.4,20,5,20z M6,15h3v3H6V15z"/>
		<path d="M14,20h5c0.6,0,1-0.4,1-1v-5c0-0.6-0.4-1-1-1h-5c-0.6,0-1,0.4-1,1v5C13,19.6,13.4,20,14,20z M15,15h3v3h-3V15z"/>
		<path d="M23,20h6c0.6,0,1-0.4,1-1v-5c0-0.6-0.4-1-1-1h-6c-0.6,0-1,0.4-1,1v5C22,19.6,22.4,20,23,20z M24,15h4v3h-4V15z"/>
		<path d="M5,29h5c0.6,0,1-0.4,1-1v-5c0-0.6-0.4-1-1-1H5c-0.6,0-1,0.4-1,1v5C4,28.6,4.4,29,5,29z M6,24h3v3H6V24z"/>
		<path d="M14,29h5c0.6,0,1-0.4,1-1v-5c0-0.6-0.4-1-1-1h-5c-0.6,0-1,0.4-1,1v5C13,28.6,13.4,29,14,29z M15,24h3v3h-3V24z"/>
		<path d="M23,29h6c0.6,0,1-0.4,1-1v-5c0-0.6-0.4-1-1-1h-6c-0.6,0-1,0.4-1,1v5C22,28.6,22.4,29,23,29z M24,24h4v3h-4V24z"/>
		<path d="M11,37v-5c0-0.6-0.4-1-1-1H5c-0.6,0-1,0.4-1,1v5c0,0.6,0.4,1,1,1h5C10.6,38,11,37.6,11,37z M9,36H6v-3h3V36z"/>
		<path d="M14,38h5c0.6,0,1-0.4,1-1v-5c0-0.6-0.4-1-1-1h-5c-0.6,0-1,0.4-1,1v5C13,37.6,13.4,38,14,38z M15,33h3v3h-3V33z"/>
		<path d="M23,38h6c0.6,0,1-0.4,1-1v-5c0-0.6-0.4-1-1-1h-6c-0.6,0-1,0.4-1,1v5C22,37.6,22.4,38,23,38z M24,33h4v3h-4V33z"/>
		<rect x="36" y="21" width="3" height="2"/>
		<rect x="42" y="21" width="3" height="2"/>
		<rect x="48" y="21" width="3" height="2"/>
		<rect x="36" y="25" width="3" height="2"/>
		<rect x="42" y="25" width="3" height="2"/>
		<rect x="48" y="25" width="3" height="2"/>
		<rect x="36" y="29" width="3" height="2"/>
		<rect x="42" y="29" width="3" height="2"/>
		<rect x="48" y="29" width="3" height="2"/>
	</g>
</g>
<g>
</g>
<g>
</g>
<g>
</g>
<g>
</g>
<g>
</g>
<g>
</g>
<g>
</g>
<g>
</g>
<g>
</g>
<g>
</g>
<g>
</g>
<g>
</g>
<g>
</g>
<g>
</g>
<g>
</g>
</svg>
